<svg xmlns="http://www.w3.org/2000/svg" width="2359" height="1181" viewBox="0 0 2359 1181"><g transform="translate(-13052 4184)"><path d="M62,3.989,3.47,105H120.53L62,3.989M62,0l62,107H0Z" transform="translate(13114 -3861)" fill="#f8f8f8"/><path d="M62,3.989,3.47,105H120.53L62,3.989M62,0l62,107H0Z" transform="translate(13238 -3861)" fill="#f8f8f8"/><path d="M62.5,3.965,3.484,105H121.516L62.5,3.965M62.5,0,125,107H0Z" transform="translate(13362 -3861)" fill="#f8f8f8"/><path d="M61.5,4.013,3.456,105H119.544L61.5,4.013M61.5,0,123,107H0Z" transform="translate(13487 -3861)" fill="#f8f8f8"/><path d="M62,3.989,3.47,105H120.53L62,3.989M62,0l62,107H0Z" transform="translate(13610 -3861)" fill="#f8f8f8"/><path d="M62,3.989,3.47,105H120.53L62,3.989M62,0l62,107H0Z" transform="translate(13052 -3754)" fill="#f8f8f8"/><path d="M62,3.989,3.47,105H120.53L62,3.989M62,0l62,107H0Z" transform="translate(13176 -3754)" fill="#f8f8f8"/><path d="M62,3.989,3.47,105H120.53L62,3.989M62,0l62,107H0Z" transform="translate(13300 -3754)" fill="#f8f8f8"/><path d="M62,3.989,3.47,105H120.53L62,3.989M62,0l62,107H0Z" transform="translate(13424 -3754)" fill="#f8f8f8"/><path d="M62,3.989,3.47,105H120.53L62,3.989M62,0l62,107H0Z" transform="translate(13548 -3754)" fill="#f8f8f8"/><path d="M62,3.989,3.47,105H120.53L62,3.989M62,0l62,107H0Z" transform="translate(13114 -3647)" fill="#f8f8f8"/><path d="M62,3.989,3.47,105H120.53L62,3.989M62,0l62,107H0Z" transform="translate(13238 -3647)" fill="#f8f8f8"/><path d="M62.5,3.965,3.484,105H121.516L62.5,3.965M62.5,0,125,107H0Z" transform="translate(13362 -3647)" fill="#f8f8f8"/><path d="M61.5,4.013,3.456,105H119.544L61.5,4.013M61.5,0,123,107H0Z" transform="translate(13487 -3647)" fill="#f8f8f8"/><path d="M62,3.989,3.47,105H120.53L62,3.989M62,0l62,107H0Z" transform="translate(13610 -3647)" fill="#f8f8f8"/><path d="M62,4.045,3.439,107H120.561L62,4.045M62,0l62,109H0Z" transform="translate(13052 -3540)" fill="#f8f8f8"/><path d="M62,4.045,3.439,107H120.561L62,4.045M62,0l62,109H0Z" transform="translate(13176 -3540)" fill="#f8f8f8"/><path d="M62,4.045,3.439,107H120.561L62,4.045M62,0l62,109H0Z" transform="translate(13300 -3540)" fill="#f8f8f8"/><path d="M62,4.045,3.439,107H120.561L62,4.045M62,0l62,109H0Z" transform="translate(13424 -3540)" fill="#f8f8f8"/><path d="M62,4.045,3.439,107H120.561L62,4.045M62,0l62,109H0Z" transform="translate(13548 -3540)" fill="#f8f8f8"/><path d="M62,3.989,3.47,105H120.53L62,3.989M62,0l62,107H0Z" transform="translate(13114 -3431)" fill="#f8f8f8"/><path d="M62,3.989,3.47,105H120.53L62,3.989M62,0l62,107H0Z" transform="translate(13238 -3431)" fill="#f8f8f8"/><path d="M62.5,3.965,3.484,105H121.516L62.5,3.965M62.5,0,125,107H0Z" transform="translate(13362 -3431)" fill="#f8f8f8"/><path d="M61.5,4.013,3.456,105H119.544L61.5,4.013M61.5,0,123,107H0Z" transform="translate(13487 -3431)" fill="#f8f8f8"/><path d="M62,3.989,3.47,105H120.53L62,3.989M62,0l62,107H0Z" transform="translate(13610 -3431)" fill="#f8f8f8"/><path d="M62,3.989,3.47,105H120.53L62,3.989M62,0l62,107H0Z" transform="translate(13052 -4184)" fill="#f8f8f8"/><path d="M62,3.989,3.47,105H120.53L62,3.989M62,0l62,107H0Z" transform="translate(13176 -4184)" fill="#f8f8f8"/><path d="M62,3.989,3.47,105H120.53L62,3.989M62,0l62,107H0Z" transform="translate(13300 -4184)" fill="#f8f8f8"/><path d="M62,3.989,3.47,105H120.53L62,3.989M62,0l62,107H0Z" transform="translate(13424 -4184)" fill="#f8f8f8"/><path d="M62,3.989,3.47,105H120.53L62,3.989M62,0l62,107H0Z" transform="translate(13548 -4184)" fill="#f8f8f8"/><path d="M62,3.989,3.47,105H120.53L62,3.989M62,0l62,107H0Z" transform="translate(13114 -4077)" fill="#f8f8f8"/><path d="M62,3.989,3.47,105H120.53L62,3.989M62,0l62,107H0Z" transform="translate(13238 -4077)" fill="#f8f8f8"/><path d="M62.5,3.965,3.484,105H121.516L62.5,3.965M62.5,0,125,107H0Z" transform="translate(13362 -4077)" fill="#f8f8f8"/><path d="M61.5,4.013,3.456,105H119.544L61.5,4.013M61.5,0,123,107H0Z" transform="translate(13487 -4077)" fill="#f8f8f8"/><path d="M62,3.989,3.47,105H120.53L62,3.989M62,0l62,107H0Z" transform="translate(13610 -4077)" fill="#f8f8f8"/><path d="M62,4.045,3.439,107H120.561L62,4.045M62,0l62,109H0Z" transform="translate(13052 -3970)" fill="#f8f8f8"/><path d="M62,4.045,3.439,107H120.561L62,4.045M62,0l62,109H0Z" transform="translate(13176 -3970)" fill="#f8f8f8"/><path d="M62,4.045,3.439,107H120.561L62,4.045M62,0l62,109H0Z" transform="translate(13300 -3970)" fill="#f8f8f8"/><path d="M62,4.045,3.439,107H120.561L62,4.045M62,0l62,109H0Z" transform="translate(13424 -3970)" fill="#f8f8f8"/><path d="M62,4.045,3.439,107H120.561L62,4.045M62,0l62,109H0Z" transform="translate(13548 -3970)" fill="#f8f8f8"/><path d="M62,3.989,3.47,105H120.53L62,3.989M62,0l62,107H0Z" transform="translate(13734 -3861)" fill="#f8f8f8"/><path d="M62,3.989,3.47,105H120.53L62,3.989M62,0l62,107H0Z" transform="translate(13672 -3754)" fill="#f8f8f8"/><path d="M62,3.989,3.47,105H120.53L62,3.989M62,0l62,107H0Z" transform="translate(13796 -3754)" fill="#f8f8f8"/><path d="M62,3.989,3.47,105H120.53L62,3.989M62,0l62,107H0Z" transform="translate(13734 -3647)" fill="#f8f8f8"/><path d="M62,4.045,3.439,107H120.561L62,4.045M62,0l62,109H0Z" transform="translate(13672 -3540)" fill="#f8f8f8"/><path d="M62,4.045,3.439,107H120.561L62,4.045M62,0l62,109H0Z" transform="translate(13796 -3540)" fill="#f8f8f8"/><path d="M62,3.989,3.47,105H120.53L62,3.989M62,0l62,107H0Z" transform="translate(13734 -3431)" fill="#f8f8f8"/><path d="M62,3.989,3.47,105H120.53L62,3.989M62,0l62,107H0Z" transform="translate(13672 -4184)" fill="#f8f8f8"/><path d="M62,3.989,3.47,105H120.53L62,3.989M62,0l62,107H0Z" transform="translate(13796 -4184)" fill="#f8f8f8"/><path d="M62,3.989,3.47,105H120.53L62,3.989M62,0l62,107H0Z" transform="translate(13734 -4077)" fill="#f8f8f8"/><path d="M62,4.045,3.439,107H120.561L62,4.045M62,0l62,109H0Z" transform="translate(13672 -3970)" fill="#f8f8f8"/><path d="M62,4.045,3.439,107H120.561L62,4.045M62,0l62,109H0Z" transform="translate(13796 -3970)" fill="#f8f8f8"/><path d="M62,3.989,3.47,105H120.53L62,3.989M62,0l62,107H0Z" transform="translate(13053 -3324)" fill="#f8f8f8"/><path d="M62,3.989,3.47,105H120.53L62,3.989M62,0l62,107H0Z" transform="translate(13177 -3324)" fill="#f8f8f8"/><path d="M62,3.989,3.47,105H120.53L62,3.989M62,0l62,107H0Z" transform="translate(13301 -3324)" fill="#f8f8f8"/><path d="M62.5,3.965,3.484,105H121.516L62.5,3.965M62.5,0,125,107H0Z" transform="translate(13425 -3324)" fill="#f8f8f8"/><path d="M61.5,4.013,3.456,105H119.544L61.5,4.013M61.5,0,123,107H0Z" transform="translate(13550 -3324)" fill="#f8f8f8"/><path d="M62,3.989,3.47,105H120.53L62,3.989M62,0l62,107H0Z" transform="translate(13673 -3324)" fill="#f8f8f8"/><path d="M62,3.989,3.47,105H120.53L62,3.989M62,0l62,107H0Z" transform="translate(13115 -3217)" fill="#f8f8f8"/><path d="M62,3.989,3.47,105H120.53L62,3.989M62,0l62,107H0Z" transform="translate(13239 -3217)" fill="#f8f8f8"/><path d="M62,3.989,3.47,105H120.53L62,3.989M62,0l62,107H0Z" transform="translate(13363 -3217)" fill="#f8f8f8"/><path d="M62,3.989,3.47,105H120.53L62,3.989M62,0l62,107H0Z" transform="translate(13487 -3217)" fill="#f8f8f8"/><path d="M62,3.989,3.47,105H120.53L62,3.989M62,0l62,107H0Z" transform="translate(13611 -3217)" fill="#f8f8f8"/><path d="M62,3.989,3.47,105H120.53L62,3.989M62,0l62,107H0Z" transform="translate(13053 -3110)" fill="#f8f8f8"/><path d="M62,3.989,3.47,105H120.53L62,3.989M62,0l62,107H0Z" transform="translate(13177 -3110)" fill="#f8f8f8"/><path d="M62,3.989,3.47,105H120.53L62,3.989M62,0l62,107H0Z" transform="translate(13301 -3110)" fill="#f8f8f8"/><path d="M62.5,3.965,3.484,105H121.516L62.5,3.965M62.5,0,125,107H0Z" transform="translate(13425 -3110)" fill="#f8f8f8"/><path d="M61.5,4.013,3.456,105H119.544L61.5,4.013M61.5,0,123,107H0Z" transform="translate(13550 -3110)" fill="#f8f8f8"/><path d="M62,3.989,3.47,105H120.53L62,3.989M62,0l62,107H0Z" transform="translate(13673 -3110)" fill="#f8f8f8"/><path d="M62,3.989,3.47,105H120.53L62,3.989M62,0l62,107H0Z" transform="translate(13797 -3324)" fill="#f8f8f8"/><path d="M62,3.989,3.47,105H120.53L62,3.989M62,0l62,107H0Z" transform="translate(13735 -3217)" fill="#f8f8f8"/><path d="M62,3.989,3.47,105H120.53L62,3.989M62,0l62,107H0Z" transform="translate(13859 -3217)" fill="#f8f8f8"/><path d="M62,3.989,3.47,105H120.53L62,3.989M62,0l62,107H0Z" transform="translate(13797 -3110)" fill="#f8f8f8"/><path d="M62.5,3.965,3.484,105H121.516L62.5,3.965M62.5,0,125,107H0Z" transform="translate(13858 -3861)" fill="#f8f8f8"/><path d="M61.5,4.013,3.456,105H119.544L61.5,4.013M61.5,0,123,107H0Z" transform="translate(13983 -3861)" fill="#f8f8f8"/><path d="M62.5,3.965,3.484,105H121.516L62.5,3.965M62.5,0,125,107H0Z" transform="translate(14106 -3861)" fill="#f8f8f8"/><path d="M62,3.989,3.47,105H120.53L62,3.989M62,0l62,107H0Z" transform="translate(13920 -3754)" fill="#f8f8f8"/><path d="M62,3.989,3.47,105H120.53L62,3.989M62,0l62,107H0Z" transform="translate(14044 -3754)" fill="#f8f8f8"/><path d="M62.5,3.965,3.484,105H121.516L62.5,3.965M62.5,0,125,107H0Z" transform="translate(13858 -3647)" fill="#f8f8f8"/><path d="M61.5,4.013,3.456,105H119.544L61.5,4.013M61.5,0,123,107H0Z" transform="translate(13983 -3647)" fill="#f8f8f8"/><path d="M62.5,3.965,3.484,105H121.516L62.5,3.965M62.5,0,125,107H0Z" transform="translate(14106 -3647)" fill="#f8f8f8"/><path d="M62,4.045,3.439,107H120.561L62,4.045M62,0l62,109H0Z" transform="translate(13920 -3540)" fill="#f8f8f8"/><path d="M62,4.045,3.439,107H120.561L62,4.045M62,0l62,109H0Z" transform="translate(14044 -3540)" fill="#f8f8f8"/><path d="M62.5,3.965,3.484,105H121.516L62.5,3.965M62.5,0,125,107H0Z" transform="translate(13858 -3431)" fill="#f8f8f8"/><path d="M61.5,4.013,3.456,105H119.544L61.5,4.013M61.5,0,123,107H0Z" transform="translate(13983 -3431)" fill="#f8f8f8"/><path d="M62.5,3.965,3.484,105H121.516L62.5,3.965M62.5,0,125,107H0Z" transform="translate(14106 -3431)" fill="#f8f8f8"/><path d="M62,3.989,3.47,105H120.53L62,3.989M62,0l62,107H0Z" transform="translate(13920 -4184)" fill="#f8f8f8"/><path d="M62,3.989,3.47,105H120.53L62,3.989M62,0l62,107H0Z" transform="translate(14044 -4184)" fill="#f8f8f8"/><path d="M62.5,3.965,3.484,105H121.516L62.5,3.965M62.5,0,125,107H0Z" transform="translate(13858 -4077)" fill="#f8f8f8"/><path d="M61.5,4.013,3.456,105H119.544L61.5,4.013M61.5,0,123,107H0Z" transform="translate(13983 -4077)" fill="#f8f8f8"/><path d="M62.5,3.965,3.484,105H121.516L62.5,3.965M62.5,0,125,107H0Z" transform="translate(14106 -4077)" fill="#f8f8f8"/><path d="M62,4.045,3.439,107H120.561L62,4.045M62,0l62,109H0Z" transform="translate(13920 -3970)" fill="#f8f8f8"/><path d="M62,4.045,3.439,107H120.561L62,4.045M62,0l62,109H0Z" transform="translate(14044 -3970)" fill="#f8f8f8"/><path d="M62.5,3.965,3.484,105H121.516L62.5,3.965M62.5,0,125,107H0Z" transform="translate(14168 -3754)" fill="#f8f8f8"/><path d="M62.5,4.021,3.452,107h118.1L62.5,4.021M62.5,0,125,109H0Z" transform="translate(14168 -3540)" fill="#f8f8f8"/><path d="M62.5,3.965,3.484,105H121.516L62.5,3.965M62.5,0,125,107H0Z" transform="translate(14168 -4184)" fill="#f8f8f8"/><path d="M62.5,4.021,3.452,107h118.1L62.5,4.021M62.5,0,125,109H0Z" transform="translate(14168 -3970)" fill="#f8f8f8"/><path d="M62.5,3.965,3.484,105H121.516L62.5,3.965M62.5,0,125,107H0Z" transform="translate(13921 -3324)" fill="#f8f8f8"/><path d="M61.5,4.013,3.456,105H119.544L61.5,4.013M61.5,0,123,107H0Z" transform="translate(14046 -3324)" fill="#f8f8f8"/><path d="M62.5,3.965,3.484,105H121.516L62.5,3.965M62.5,0,125,107H0Z" transform="translate(14169 -3324)" fill="#f8f8f8"/><path d="M62,3.989,3.47,105H120.53L62,3.989M62,0l62,107H0Z" transform="translate(13983 -3217)" fill="#f8f8f8"/><path d="M62,3.989,3.47,105H120.53L62,3.989M62,0l62,107H0Z" transform="translate(14107 -3217)" fill="#f8f8f8"/><path d="M62.5,3.965,3.484,105H121.516L62.5,3.965M62.5,0,125,107H0Z" transform="translate(13921 -3110)" fill="#f8f8f8"/><path d="M61.5,4.013,3.456,105H119.544L61.5,4.013M61.5,0,123,107H0Z" transform="translate(14046 -3110)" fill="#f8f8f8"/><path d="M62.5,3.965,3.484,105H121.516L62.5,3.965M62.5,0,125,107H0Z" transform="translate(14169 -3110)" fill="#f8f8f8"/><path d="M62.5,3.965,3.484,105H121.516L62.5,3.965M62.5,0,125,107H0Z" transform="translate(14231 -3217)" fill="#f8f8f8"/><path d="M61.5,4.013,3.456,105H119.544L61.5,4.013M61.5,0,123,107H0Z" transform="translate(14231 -3861)" fill="#f8f8f8"/><path d="M62.5,3.965,3.484,105H121.516L62.5,3.965M62.5,0,125,107H0Z" transform="translate(14354 -3861)" fill="#f8f8f8"/><path d="M62,3.989,3.47,105H120.53L62,3.989M62,0l62,107H0Z" transform="translate(14479 -3861)" fill="#f8f8f8"/><path d="M61.5,4.013,3.456,105H119.544L61.5,4.013M61.5,0,123,107H0Z" transform="translate(14293 -3754)" fill="#f8f8f8"/><path d="M62.5,3.965,3.484,105H121.516L62.5,3.965M62.5,0,125,107H0Z" transform="translate(14416 -3754)" fill="#f8f8f8"/><path d="M61.5,4.013,3.456,105H119.544L61.5,4.013M61.5,0,123,107H0Z" transform="translate(14541 -3754)" fill="#f8f8f8"/><path d="M61.5,4.013,3.456,105H119.544L61.5,4.013M61.5,0,123,107H0Z" transform="translate(14231 -3647)" fill="#f8f8f8"/><path d="M62.5,3.965,3.484,105H121.516L62.5,3.965M62.5,0,125,107H0Z" transform="translate(14354 -3647)" fill="#f8f8f8"/><path d="M62,3.989,3.47,105H120.53L62,3.989M62,0l62,107H0Z" transform="translate(14479 -3647)" fill="#f8f8f8"/><path d="M61.5,4.07,3.425,107h116.15L61.5,4.07M61.5,0,123,109H0Z" transform="translate(14293 -3540)" fill="#f8f8f8"/><path d="M62.5,4.021,3.452,107h118.1L62.5,4.021M62.5,0,125,109H0Z" transform="translate(14416 -3540)" fill="#f8f8f8"/><path d="M61.5,4.07,3.425,107h116.15L61.5,4.07M61.5,0,123,109H0Z" transform="translate(14541 -3540)" fill="#f8f8f8"/><path d="M61.5,4.013,3.456,105H119.544L61.5,4.013M61.5,0,123,107H0Z" transform="translate(14231 -3431)" fill="#f8f8f8"/><path d="M62.5,3.965,3.484,105H121.516L62.5,3.965M62.5,0,125,107H0Z" transform="translate(14354 -3431)" fill="#f8f8f8"/><path d="M62,3.989,3.47,105H120.53L62,3.989M62,0l62,107H0Z" transform="translate(14479 -3431)" fill="#f8f8f8"/><path d="M61.5,4.013,3.456,105H119.544L61.5,4.013M61.5,0,123,107H0Z" transform="translate(14293 -4184)" fill="#f8f8f8"/><path d="M62.5,3.965,3.484,105H121.516L62.5,3.965M62.5,0,125,107H0Z" transform="translate(14416 -4184)" fill="#f8f8f8"/><path d="M61.5,4.013,3.456,105H119.544L61.5,4.013M61.5,0,123,107H0Z" transform="translate(14541 -4184)" fill="#f8f8f8"/><path d="M61.5,4.013,3.456,105H119.544L61.5,4.013M61.5,0,123,107H0Z" transform="translate(14231 -4077)" fill="#f8f8f8"/><path d="M62.5,3.965,3.484,105H121.516L62.5,3.965M62.5,0,125,107H0Z" transform="translate(14354 -4077)" fill="#f8f8f8"/><path d="M62,3.989,3.47,105H120.53L62,3.989M62,0l62,107H0Z" transform="translate(14479 -4077)" fill="#f8f8f8"/><path d="M61.5,4.07,3.425,107h116.15L61.5,4.07M61.5,0,123,109H0Z" transform="translate(14293 -3970)" fill="#f8f8f8"/><path d="M62.5,4.021,3.452,107h118.1L62.5,4.021M62.5,0,125,109H0Z" transform="translate(14416 -3970)" fill="#f8f8f8"/><path d="M61.5,4.07,3.425,107h116.15L61.5,4.07M61.5,0,123,109H0Z" transform="translate(14541 -3970)" fill="#f8f8f8"/><path d="M61.5,4.013,3.456,105H119.544L61.5,4.013M61.5,0,123,107H0Z" transform="translate(14294 -3324)" fill="#f8f8f8"/><path d="M62.5,3.965,3.484,105H121.516L62.5,3.965M62.5,0,125,107H0Z" transform="translate(14417 -3324)" fill="#f8f8f8"/><path d="M62,3.989,3.47,105H120.53L62,3.989M62,0l62,107H0Z" transform="translate(14542 -3324)" fill="#f8f8f8"/><path d="M61.5,4.013,3.456,105H119.544L61.5,4.013M61.5,0,123,107H0Z" transform="translate(14356 -3217)" fill="#f8f8f8"/><path d="M62.5,3.965,3.484,105H121.516L62.5,3.965M62.5,0,125,107H0Z" transform="translate(14479 -3217)" fill="#f8f8f8"/><path d="M61.5,4.013,3.456,105H119.544L61.5,4.013M61.5,0,123,107H0Z" transform="translate(14294 -3110)" fill="#f8f8f8"/><path d="M62.5,3.965,3.484,105H121.516L62.5,3.965M62.5,0,125,107H0Z" transform="translate(14417 -3110)" fill="#f8f8f8"/><path d="M62,3.989,3.47,105H120.53L62,3.989M62,0l62,107H0Z" transform="translate(14542 -3110)" fill="#f8f8f8"/><path d="M61.5,4.013,3.456,105H119.544L61.5,4.013M61.5,0,123,107H0Z" transform="translate(14603 -3861)" fill="#f8f8f8"/><path d="M62.5,3.965,3.484,105H121.516L62.5,3.965M62.5,0,125,107H0Z" transform="translate(14726 -3861)" fill="#f8f8f8"/><path d="M62,3.989,3.47,105H120.53L62,3.989M62,0l62,107H0Z" transform="translate(14851 -3861)" fill="#f8f8f8"/><path d="M62,3.989,3.47,105H120.53L62,3.989M62,0l62,107H0Z" transform="translate(14975 -3861)" fill="#f8f8f8"/><path d="M62,3.989,3.47,105H120.53L62,3.989M62,0l62,107H0Z" transform="translate(15099 -3861)" fill="#f8f8f8"/><path d="M62.5,3.965,3.484,105H121.516L62.5,3.965M62.5,0,125,107H0Z" transform="translate(15223 -3861)" fill="#f8f8f8"/><path d="M61.5,4.013,3.456,105H119.544L61.5,4.013M61.5,0,123,107H0Z" transform="translate(14665 -3754)" fill="#f8f8f8"/><path d="M62.5,3.965,3.484,105H121.516L62.5,3.965M62.5,0,125,107H0Z" transform="translate(14788 -3754)" fill="#f8f8f8"/><path d="M62,3.989,3.47,105H120.53L62,3.989M62,0l62,107H0Z" transform="translate(14913 -3754)" fill="#f8f8f8"/><path d="M62,3.989,3.47,105H120.53L62,3.989M62,0l62,107H0Z" transform="translate(15037 -3754)" fill="#f8f8f8"/><path d="M62,3.989,3.47,105H120.53L62,3.989M62,0l62,107H0Z" transform="translate(15161 -3754)" fill="#f8f8f8"/><path d="M62,3.989,3.47,105H120.53L62,3.989M62,0l62,107H0Z" transform="translate(15285 -3754)" fill="#f8f8f8"/><path d="M61.5,4.013,3.456,105H119.544L61.5,4.013M61.5,0,123,107H0Z" transform="translate(14603 -3647)" fill="#f8f8f8"/><path d="M62.5,3.965,3.484,105H121.516L62.5,3.965M62.5,0,125,107H0Z" transform="translate(14726 -3647)" fill="#f8f8f8"/><path d="M62,3.989,3.47,105H120.53L62,3.989M62,0l62,107H0Z" transform="translate(14851 -3647)" fill="#f8f8f8"/><path d="M62,3.989,3.47,105H120.53L62,3.989M62,0l62,107H0Z" transform="translate(14975 -3647)" fill="#f8f8f8"/><path d="M62,3.989,3.47,105H120.53L62,3.989M62,0l62,107H0Z" transform="translate(15099 -3647)" fill="#f8f8f8"/><path d="M62.5,3.965,3.484,105H121.516L62.5,3.965M62.5,0,125,107H0Z" transform="translate(15223 -3647)" fill="#f8f8f8"/><path d="M61.5,4.07,3.425,107h116.15L61.5,4.07M61.5,0,123,109H0Z" transform="translate(14665 -3540)" fill="#f8f8f8"/><path d="M62.5,4.021,3.452,107h118.1L62.5,4.021M62.5,0,125,109H0Z" transform="translate(14788 -3540)" fill="#f8f8f8"/><path d="M62,4.045,3.439,107H120.561L62,4.045M62,0l62,109H0Z" transform="translate(14913 -3540)" fill="#f8f8f8"/><path d="M62,4.045,3.439,107H120.561L62,4.045M62,0l62,109H0Z" transform="translate(15037 -3540)" fill="#f8f8f8"/><path d="M62,4.045,3.439,107H120.561L62,4.045M62,0l62,109H0Z" transform="translate(15161 -3540)" fill="#f8f8f8"/><path d="M62,4.045,3.439,107H120.561L62,4.045M62,0l62,109H0Z" transform="translate(15285 -3540)" fill="#f8f8f8"/><path d="M61.5,4.013,3.456,105H119.544L61.5,4.013M61.5,0,123,107H0Z" transform="translate(14603 -3431)" fill="#f8f8f8"/><path d="M62.5,3.965,3.484,105H121.516L62.5,3.965M62.5,0,125,107H0Z" transform="translate(14726 -3431)" fill="#f8f8f8"/><path d="M62,3.989,3.47,105H120.53L62,3.989M62,0l62,107H0Z" transform="translate(14851 -3431)" fill="#f8f8f8"/><path d="M62,3.989,3.47,105H120.53L62,3.989M62,0l62,107H0Z" transform="translate(14975 -3431)" fill="#f8f8f8"/><path d="M62,3.989,3.47,105H120.53L62,3.989M62,0l62,107H0Z" transform="translate(15099 -3431)" fill="#f8f8f8"/><path d="M62.5,3.965,3.484,105H121.516L62.5,3.965M62.5,0,125,107H0Z" transform="translate(15223 -3431)" fill="#f8f8f8"/><path d="M61.5,4.013,3.456,105H119.544L61.5,4.013M61.5,0,123,107H0Z" transform="translate(14665 -4184)" fill="#f8f8f8"/><path d="M62.5,3.965,3.484,105H121.516L62.5,3.965M62.5,0,125,107H0Z" transform="translate(14788 -4184)" fill="#f8f8f8"/><path d="M62,3.989,3.47,105H120.53L62,3.989M62,0l62,107H0Z" transform="translate(14913 -4184)" fill="#f8f8f8"/><path d="M62,3.989,3.47,105H120.53L62,3.989M62,0l62,107H0Z" transform="translate(15037 -4184)" fill="#f8f8f8"/><path d="M62,3.989,3.47,105H120.53L62,3.989M62,0l62,107H0Z" transform="translate(15161 -4184)" fill="#f8f8f8"/><path d="M62,3.989,3.47,105H120.53L62,3.989M62,0l62,107H0Z" transform="translate(15285 -4184)" fill="#f8f8f8"/><path d="M61.5,4.013,3.456,105H119.544L61.5,4.013M61.5,0,123,107H0Z" transform="translate(14603 -4077)" fill="#f8f8f8"/><path d="M62.5,3.965,3.484,105H121.516L62.5,3.965M62.5,0,125,107H0Z" transform="translate(14726 -4077)" fill="#f8f8f8"/><path d="M62,3.989,3.47,105H120.53L62,3.989M62,0l62,107H0Z" transform="translate(14851 -4077)" fill="#f8f8f8"/><path d="M62,3.989,3.47,105H120.53L62,3.989M62,0l62,107H0Z" transform="translate(14975 -4077)" fill="#f8f8f8"/><path d="M62,3.989,3.47,105H120.53L62,3.989M62,0l62,107H0Z" transform="translate(15099 -4077)" fill="#f8f8f8"/><path d="M62.5,3.965,3.484,105H121.516L62.5,3.965M62.5,0,125,107H0Z" transform="translate(15223 -4077)" fill="#f8f8f8"/><path d="M61.5,4.07,3.425,107h116.15L61.5,4.07M61.5,0,123,109H0Z" transform="translate(14665 -3970)" fill="#f8f8f8"/><path d="M62.5,4.021,3.452,107h118.1L62.5,4.021M62.5,0,125,109H0Z" transform="translate(14788 -3970)" fill="#f8f8f8"/><path d="M62,4.045,3.439,107H120.561L62,4.045M62,0l62,109H0Z" transform="translate(14913 -3970)" fill="#f8f8f8"/><path d="M62,4.045,3.439,107H120.561L62,4.045M62,0l62,109H0Z" transform="translate(15037 -3970)" fill="#f8f8f8"/><path d="M62,4.045,3.439,107H120.561L62,4.045M62,0l62,109H0Z" transform="translate(15161 -3970)" fill="#f8f8f8"/><path d="M62,4.045,3.439,107H120.561L62,4.045M62,0l62,109H0Z" transform="translate(15285 -3970)" fill="#f8f8f8"/><path d="M61.5,4.013,3.456,105H119.544L61.5,4.013M61.5,0,123,107H0Z" transform="translate(14666 -3324)" fill="#f8f8f8"/><path d="M62.5,3.965,3.484,105H121.516L62.5,3.965M62.5,0,125,107H0Z" transform="translate(14789 -3324)" fill="#f8f8f8"/><path d="M62,3.989,3.47,105H120.53L62,3.989M62,0l62,107H0Z" transform="translate(14914 -3324)" fill="#f8f8f8"/><path d="M62,3.989,3.47,105H120.53L62,3.989M62,0l62,107H0Z" transform="translate(15038 -3324)" fill="#f8f8f8"/><path d="M62,3.989,3.47,105H120.53L62,3.989M62,0l62,107H0Z" transform="translate(15162 -3324)" fill="#f8f8f8"/><path d="M62.5,3.965,3.484,105H121.516L62.5,3.965M62.5,0,125,107H0Z" transform="translate(15286 -3324)" fill="#f8f8f8"/><path d="M62.5,3.965,3.484,105H121.516L62.5,3.965M62.5,0,125,107H0Z" transform="translate(14603 -3217)" fill="#f8f8f8"/><path d="M61.5,4.013,3.456,105H119.544L61.5,4.013M61.5,0,123,107H0Z" transform="translate(14728 -3217)" fill="#f8f8f8"/><path d="M62.5,3.965,3.484,105H121.516L62.5,3.965M62.5,0,125,107H0Z" transform="translate(14851 -3217)" fill="#f8f8f8"/><path d="M62,3.989,3.47,105H120.53L62,3.989M62,0l62,107H0Z" transform="translate(14976 -3217)" fill="#f8f8f8"/><path d="M62,3.989,3.47,105H120.53L62,3.989M62,0l62,107H0Z" transform="translate(15100 -3217)" fill="#f8f8f8"/><path d="M62,3.989,3.47,105H120.53L62,3.989M62,0l62,107H0Z" transform="translate(15224 -3217)" fill="#f8f8f8"/><path d="M61.5,4.013,3.456,105H119.544L61.5,4.013M61.5,0,123,107H0Z" transform="translate(14666 -3110)" fill="#f8f8f8"/><path d="M62.5,3.965,3.484,105H121.516L62.5,3.965M62.5,0,125,107H0Z" transform="translate(14789 -3110)" fill="#f8f8f8"/><path d="M62,3.989,3.47,105H120.53L62,3.989M62,0l62,107H0Z" transform="translate(14914 -3110)" fill="#f8f8f8"/><path d="M62,3.989,3.47,105H120.53L62,3.989M62,0l62,107H0Z" transform="translate(15038 -3110)" fill="#f8f8f8"/><path d="M62,3.989,3.47,105H120.53L62,3.989M62,0l62,107H0Z" transform="translate(15162 -3110)" fill="#f8f8f8"/><path d="M62.5,3.965,3.484,105H121.516L62.5,3.965M62.5,0,125,107H0Z" transform="translate(15286 -3110)" fill="#f8f8f8"/><path d="M61.5,4.013,3.456,105H119.544L61.5,4.013M61.5,0,123,107H0Z" transform="translate(14665 -4184)" fill="#f8f8f8"/></g></svg>