<svg xmlns="http://www.w3.org/2000/svg" viewBox="0 0 95.59 117.45"><defs><style>.cls-1{fill:#040000;}.cls-2{fill:#3fb04d;}</style></defs><g id="レイヤー_2" data-name="レイヤー 2"><g id="レイヤー_1-2" data-name="レイヤー 1"><path class="cls-1" d="M0,117.45,15.12,0H70.89Q82.34,0,89.53,7.71a21.61,21.61,0,0,1,5.84,18.35l-.85,6.6q-1.47,11.45-9.28,18t-21.9,8.07q13.91,0,19.85,7.87a23.89,23.89,0,0,1,4.62,18.19L87,91.39Q85.6,102,76.34,109.71a31.31,31.31,0,0,1-20.56,7.74Zm29.51-13.09h14a15.77,15.77,0,0,0,10.32-3.86,13.91,13.91,0,0,0,5.32-9.11L60.82,78.3Q62.5,65.2,48.53,65.21h-14Zm6.71-52.12h14a15.71,15.71,0,0,0,10.32-3.88,14.16,14.16,0,0,0,5.34-9.21l1.68-13.09a10.63,10.63,0,0,0-3-9.15,12.39,12.39,0,0,0-9.34-3.82h-14Z"/><path class="cls-2" d="M60.82,78.3,59.13,91.39a13.91,13.91,0,0,1-5.32,9.11,15.77,15.77,0,0,1-10.32,3.86h-14l2.45-19L0,117.25l0,.2H55.78a31.31,31.31,0,0,0,20.56-7.74Q85.6,102,87,91.39l.85-6.61a23.89,23.89,0,0,0-4.62-18.19q-5.94-7.87-19.85-7.87,14.1-1.53,21.9-8.07t9.28-18l.85-6.6a25.63,25.63,0,0,0,.19-4.34L51.85,65.43Q62.27,66.89,60.82,78.3Z"/></g></g></svg>