<svg xmlns="http://www.w3.org/2000/svg" width="156" height="62.408" viewBox="0 0 156 62.408"><g transform="translate(2 -3.995)"><g transform="translate(-2 3.995)"><path d="M83.5,86a5.88,5.88,0,0,1-2.245,3.841,6.622,6.622,0,0,1-4.331,1.616h-5.88Q65.86,91.457,65.9,86h2.947c-.1,1.808.748,2.715,2.556,2.715h2.94a3.384,3.384,0,0,0,2.179-.8A2.947,2.947,0,0,0,77.647,86Z" transform="translate(-22.261 -29.048)"/><path d="M81.123,53H86.9L84.368,72.111H78.527l.364-2.741a3.194,3.194,0,0,1-3.311,2.741H72.64A5.145,5.145,0,0,1,68.72,70.5,4.516,4.516,0,0,1,67.5,66.654l1.079-8.2a5.96,5.96,0,0,1,2.245-3.874A6.622,6.622,0,0,1,75.163,53H79.07l-.444,2.741h-.881a3.344,3.344,0,0,0-2.185.808,2.967,2.967,0,0,0-1.126,1.907l-1.073,8.2a2.225,2.225,0,0,0,.609,1.907,2.583,2.583,0,0,0,1.987.808,3.311,3.311,0,0,0,2.192-.808,2.96,2.96,0,0,0,1.112-1.907l1.424-10.939Z" transform="translate(-22.784 -17.901)"/><path d="M88.5,47.461l.331-2.741h5.86l-.364,2.741Z" transform="translate(-29.896 -15.104)" fill="#28c04a"/><path d="M103.36,72.109,105.883,53h5.847l-.358,2.741a3.808,3.808,0,0,1,1.192-2.079A3.192,3.192,0,0,1,114.684,53h2.94a5.125,5.125,0,0,1,3.92,1.622,4.543,4.543,0,0,1,1.218,3.861l-1.8,13.654h-5.854L116.9,58.481a2.251,2.251,0,0,0-.616-1.934,2.6,2.6,0,0,0-1.987-.808,3.311,3.311,0,0,0-2.179.808A2.973,2.973,0,0,0,111,58.481L109.2,72.135Z" transform="translate(-34.915 -17.898)"/><path d="M157.546,63.911H145.8l-.834,5.39a2.225,2.225,0,0,0,.609,1.907,2.569,2.569,0,0,0,1.987.808h26.408q2.92,0,3.311-2.715h2.94q-1.4,5.45-6.576,5.456H144.21a5.145,5.145,0,0,1-3.92-1.609,4.5,4.5,0,0,1-1.218-3.847l1.589-10.847a5.96,5.96,0,0,1,2.245-3.874A6.622,6.622,0,0,1,147.243,53h5.88a5.112,5.112,0,0,1,3.92,1.622,4.5,4.5,0,0,1,1.218,3.861ZM146.163,61.17h5.887l.358-2.715a2.271,2.271,0,0,0-.622-1.934,2.589,2.589,0,0,0-1.987-.808,3.344,3.344,0,0,0-2.185.808,2.967,2.967,0,0,0-1.119,1.934Z" transform="translate(-46.96 -17.899)"/><path d="M192.973,63.911H181.232l-.861,5.377a2.245,2.245,0,0,0,.609,1.914,2.563,2.563,0,0,0,1.987.8h2.94a2.94,2.94,0,0,0,3.311-2.715h2.94q-1.4,5.463-6.576,5.456H179.65a5.165,5.165,0,0,1-3.92-1.6,4.5,4.5,0,0,1-1.218-3.854l1.583-10.834a5.96,5.96,0,0,1,2.238-3.874A6.622,6.622,0,0,1,182.669,53h5.887a5.125,5.125,0,0,1,3.92,1.622,4.543,4.543,0,0,1,1.218,3.861ZM181.59,61.17h5.887l.358-2.715a2.251,2.251,0,0,0-.616-1.934,2.6,2.6,0,0,0-1.987-.808,3.311,3.311,0,0,0-2.179.808,2.973,2.973,0,0,0-1.126,1.934Z" transform="translate(-58.931 -17.899)"/><path d="M215.5,72.1h-5.86l2.516-19.137h5.86l-.722,5.483a7.6,7.6,0,0,1,2.357-4.132,6.43,6.43,0,0,1,4.251-1.324h2.914l-.722,5.483h-5.86a3.311,3.311,0,0,0-2.179.8,2.927,2.927,0,0,0-1.119,1.914Z" transform="translate(-70.817 -17.887)"/><path d="M0,69.314,3.311,44.72H17.972L17.6,47.461H8.8l-1.106,8.2h5.887l-.338,2.715H7.331l-1.106,8.2h8.8l-.364,2.741Z" transform="translate(0 -15.104)"/><path d="M31,72.109,33.6,53H39.45l-.364,2.741a3.768,3.768,0,0,1,1.185-2.079A3.205,3.205,0,0,1,42.39,53h2.94a5.112,5.112,0,0,1,3.914,1.622,4.5,4.5,0,0,1,1.205,3.861L48.614,72.109H42.761L44.6,58.454a2.251,2.251,0,0,0-.616-1.934A2.589,2.589,0,0,0,42,55.713a3.344,3.344,0,0,0-2.185.808,2.973,2.973,0,0,0-1.126,1.934L36.874,72.109Z" transform="translate(-10.472 -17.899)"/><path d="M0,24.725,3.185,0H14.926a5.125,5.125,0,0,1,3.92,1.622,4.536,4.536,0,0,1,1.232,3.861L19.9,6.872a5.668,5.668,0,0,1-1.953,3.788,8.4,8.4,0,0,1-4.635,1.7c1.947,0,3.344.55,4.178,1.655a5.039,5.039,0,0,1,1,3.861l-.179,1.391a5.96,5.96,0,0,1-2.238,3.861,6.582,6.582,0,0,1-4.331,1.629ZM6.211,21.97H9.158a3.311,3.311,0,0,0,2.172-.781,2.927,2.927,0,0,0,1.119-1.92l.351-2.755q.358-2.755-2.583-2.755H7.284ZM7.622,11H10.6a3.311,3.311,0,0,0,2.172-.821,2.98,2.98,0,0,0,1.126-1.934l.351-2.761a2.232,2.232,0,0,0-.622-1.92,2.649,2.649,0,0,0-1.987-.808H8.688Z" transform="translate(0 0.005)"/><path d="M54.421,19.278H42.673l-.351,2.755a2.245,2.245,0,0,0,.609,1.92,2.576,2.576,0,0,0,1.987.815h2.94a2.9,2.9,0,0,0,3.271-2.735h2.94q-1.391,5.49-6.562,5.49H41.614a5.119,5.119,0,0,1-3.92-1.616,4.549,4.549,0,0,1-1.232-3.874l1.06-8.238A5.96,5.96,0,0,1,39.76,9.9a6.622,6.622,0,0,1,4.324-1.622h5.894A5.132,5.132,0,0,1,53.9,9.908a4.563,4.563,0,0,1,1.225,3.887Zm-11.39-2.755h5.887l.351-2.728a2.3,2.3,0,0,0-.622-1.947,2.649,2.649,0,0,0-1.987-.808,3.344,3.344,0,0,0-2.185.808,3.013,3.013,0,0,0-1.112,1.947Z" transform="translate(-12.299 -2.793)"/></g></g></svg>